<?xml version="1.0" standalone="no"?>
<!DOCTYPE svg PUBLIC "-//W3C//DTD SVG 20010904//EN"
 "http://www.w3.org/TR/2001/REC-SVG-20010904/DTD/svg10.dtd">
<svg version="1.0" xmlns="http://www.w3.org/2000/svg"
 width="744.000000pt" height="744.000000pt" viewBox="0 0 744.000000 744.000000"
 preserveAspectRatio="xMidYMid meet">
<metadata>
Created by potrace 1.14, written by Peter Selinger 2001-2017
</metadata>
<g transform="translate(0.000000,744.000000) scale(0.100000,-0.100000)"
fill="#000000" stroke="none">
<path d="M6364 7425 c-325 -57 -598 -309 -685 -631 -33 -121 -35 -307 -4 -423
45 -167 101 -272 207 -386 141 -151 317 -242 528 -271 37 -6 192 -6 215 -1 11
3 40 8 65 12 148 24 307 111 431 234 173 172 252 359 253 601 1 144 -5 190
-38 286 -86 254 -274 446 -531 542 -118 44 -310 60 -441 37z"/>
<path d="M3129 5706 c-2 -2 -47 -6 -100 -10 -53 -4 -106 -8 -118 -11 -12 -2
-50 -7 -84 -10 -35 -3 -74 -8 -87 -10 -14 -3 -38 -7 -55 -9 -177 -25 -477
-103 -675 -175 -450 -165 -830 -407 -1155 -737 -107 -108 -121 -124 -203 -234
-193 -257 -350 -605 -457 -1013 -35 -133 -72 -303 -80 -367 -3 -19 -7 -46 -9
-60 -8 -42 -25 -194 -31 -288 -10 -135 -4 -557 9 -697 14 -135 18 -165 41
-281 54 -268 190 -598 341 -823 27 -41 54 -81 59 -90 6 -9 12 -18 15 -21 3 -3
32 -39 64 -80 129 -164 341 -352 529 -468 69 -43 234 -127 297 -150 201 -75
379 -115 605 -137 33 -3 78 -8 100 -11 96 -11 285 -18 475 -19 267 0 258 -4
440 195 47 51 96 105 110 120 14 15 66 72 115 126 50 54 113 123 142 154 29
31 61 66 72 78 10 13 66 73 123 134 106 114 125 137 92 120 -36 -19 -230 -81
-304 -97 -105 -23 -110 -24 -160 -31 -25 -3 -72 -9 -105 -14 -63 -9 -493 -6
-534 4 -13 3 -49 8 -80 11 -31 4 -63 8 -71 11 -8 2 -42 6 -75 9 -33 3 -69 9
-80 12 -11 3 -29 7 -40 9 -188 24 -454 145 -630 287 -137 111 -296 301 -373
446 -59 112 -128 330 -156 496 -31 182 -41 294 -40 485 0 134 9 286 19 339 1
9 6 38 9 64 11 78 44 233 77 357 114 430 282 746 535 1006 187 191 354 304
659 445 33 15 288 97 320 102 17 3 41 9 55 12 41 10 186 34 247 40 32 4 68 8
81 10 48 8 232 17 347 18 179 1 293 -9 538 -48 97 -15 400 -101 492 -140 17
-7 71 -29 120 -50 88 -37 140 -71 160 -104 6 -10 10 -834 11 -2226 1 -2064 2
-2213 18 -2252 21 -50 73 -99 124 -117 27 -10 112 -13 327 -12 313 2 316 2
377 59 64 59 63 47 65 542 5 1430 12 3293 14 3830 l1 620 -63 41 c-35 23 -113
67 -174 99 -60 32 -114 61 -120 65 -18 12 -229 108 -321 145 -241 98 -533 185
-775 230 -13 3 -33 7 -44 9 -11 2 -56 9 -100 16 -44 6 -91 13 -104 15 -14 3
-54 7 -90 10 -36 4 -82 9 -101 12 -38 5 -626 14 -631 9z"/>
</g>
</svg>
